<svg width="426.65" height="100" viewBox="0 0 426.65 100" fill="none" xmlns="http://www.w3.org/2000/svg">
<path d="M49.3121 1.375C22.078 1.375 0 23.4533 0 50.6877C0 77.9222 22.078 100 49.3121 100C59.5947 100 69.1386 96.8509 77.0399 91.4675V100H98.6255V50.6877C98.6255 23.4521 76.5475 1.375 49.3121 1.375ZM49.3121 89.2956C27.9906 89.2956 10.7048 72.0107 10.7048 50.6877C10.7048 29.3659 27.9906 12.0799 49.3121 12.0799C70.6337 12.0799 87.9195 29.3648 87.9195 50.6877C87.9195 72.0095 70.6348 89.2956 49.3121 89.2956Z" fill="white"/>
<path d="M49.3083 44.9141C46.123 44.9141 43.5312 47.5058 43.5312 50.6911C43.5312 53.8764 46.123 56.4682 49.3083 56.4682C52.4935 56.4682 55.0865 53.8764 55.0865 50.6911C55.0865 47.5058 52.4947 44.9141 49.3083 44.9141Z" fill="white"/>
<path d="M49.316 35.043C40.6737 35.043 33.668 42.0487 33.668 50.6912C33.668 59.3336 40.6737 66.3394 49.316 66.3394C57.9583 66.3394 64.964 59.3336 64.964 50.6912C64.9652 42.0487 57.9583 35.043 49.316 35.043ZM49.316 60.0365C44.1634 60.0365 39.9707 55.845 39.9707 50.6912C39.9707 45.5385 44.1634 41.3458 49.316 41.3458C54.4697 41.3458 58.6624 45.5385 58.6624 50.6912C58.6624 55.845 54.4697 60.0365 49.316 60.0365Z" fill="white"/>




<text x="106.626" y="67" fill="white" font-family="Arial, Helvetica, sans-serif" font-size="41.67" font-weight="700">Neural Xpert</text></svg>
